<svg width="100" height="225" viewBox="0 0 100 225" fill="none" xmlns="http://www.w3.org/2000/svg">
<path d="M57.1263 132.755C38.1315 144.51 32.1545 133.79 31.5402 126.961C31.5402 117.028 31.5402 108.75 18.6452 94.056C-12.4671 59.2883 -2.64214 3.8249 40.3419 0.306892C83.326 -3.21112 70.8401 24.3126 55.6934 42.1106C40.5765 59.8736 50.129 65.2685 72.7525 78.0441L72.887 78.1203C102.362 96.1252 77.7994 112.268 63.2667 115.165C48.7341 118.062 61.2199 126.961 57.1263 132.755Z" fill="url(#paint0_linear_102_4116)"/>
<path d="M98.948 183.513C100.595 164.071 82.66 159.773 72.3605 160.009C71.5878 160.028 70.9359 160.548 70.7222 161.275L69.9649 163.85C69.6216 165.018 70.5382 166.178 71.779 166.225C81.0369 166.571 95.1234 170.295 92.7001 183.513C90.3189 196.502 78.7573 198.166 71.5612 197.21C70.3839 197.055 69.2703 197.912 69.2703 199.074V201.961C69.2703 202.815 69.8792 203.553 70.742 203.677C80.314 205.042 97.3173 202.758 98.948 183.513Z" fill="url(#paint1_linear_102_4116)"/>
<path d="M72.3513 151.764V223.235C72.3513 224.21 71.5376 225 70.5337 225H14.6013C13.5975 225 12.7837 224.21 12.7837 223.235L12.7838 151.764C12.7838 150.789 13.5975 150 14.6013 150H70.5337C71.5374 150 72.3513 150.789 72.3513 151.764Z" fill="url(#paint2_linear_102_4116)"/>
<defs>
<linearGradient id="paint0_linear_102_4116" x1="-28.9185" y1="147.888" x2="88.3005" y2="1.25577" gradientUnits="userSpaceOnUse">
<stop stop-color="#ECECEC"/>
<stop offset="1" stop-color="#F5F5F5" stop-opacity="0"/>
</linearGradient>
<linearGradient id="paint1_linear_102_4116" x1="109.128" y1="169.226" x2="69.2691" y2="170.075" gradientUnits="userSpaceOnUse">
<stop stop-color="white"/>
<stop offset="1" stop-color="#CCCCCC"/>
</linearGradient>
<linearGradient id="paint2_linear_102_4116" x1="42.5675" y1="127.359" x2="42.5675" y2="248.257" gradientUnits="userSpaceOnUse">
<stop stop-color="white"/>
<stop offset="1" stop-color="#CCCCCC"/>
</linearGradient>
</defs>
</svg>
